<svg width="91" height="75" viewBox="0 0 91 75" fill="none" xmlns="http://www.w3.org/2000/svg">
<path id="icon-upload" opacity="0.3" fill-rule="evenodd" clip-rule="evenodd" d="M62.271 68.0279H54.822C53.9924 68.0279 53.3199 67.3541 53.3199 66.5229C53.3199 65.6917 53.9924 65.0178 54.822 65.0178H62.271C62.3008 65.0178 62.3381 65.0154 62.3861 65.0098L62.559 64.9998H69.0321C74.1562 64.6182 78.931 62.2667 82.4909 58.3545C86.0483 54.4605 87.9958 49.4569 87.9958 44.2404C87.979 34.8544 81.5446 26.4336 72.6874 24.1112C72.116 23.9614 71.6853 23.49 71.5867 22.9065C70.6996 17.6585 68.089 12.8861 64.1133 9.26612C59.6891 5.23408 53.9348 3.01008 47.9338 3.01008C43.2986 3.01008 38.7858 4.33307 34.9202 6.82537C31.6979 8.89624 29.0272 11.6937 27.1415 14.975C26.8234 15.5285 26.1913 15.8205 25.5647 15.7035C24.7655 15.5544 23.9536 15.4768 23.1618 15.4768C16.2988 15.4768 10.7126 21.0385 10.7126 27.8617C10.7126 28.7063 10.8011 29.5588 10.9748 30.4582C11.0859 31.0333 10.8538 31.6209 10.3799 31.964C5.7668 35.3042 3.00418 40.6652 3.00418 46.3275C3.00418 50.9491 4.73288 55.4397 7.88926 59.0001C11.1291 62.6437 15.3758 64.7729 19.7961 65.0178H41.6729C42.5025 65.0178 43.175 65.6917 43.175 66.5229C43.175 67.3541 42.5025 68.0279 41.6729 68.0279H19.9409L19.7139 68.0257C14.396 67.7337 9.40765 65.2327 5.6447 61.0008C2.00194 56.8917 0 51.6914 0 46.3275C0 40.0085 2.93056 34.0223 7.86876 30.0947C7.76279 29.3421 7.70846 28.6026 7.70846 27.8617C7.70846 19.3717 14.644 12.4667 23.1618 12.4667C23.795 12.4667 24.435 12.5065 25.0726 12.5839C27.1565 9.26699 29.9664 6.43298 33.2964 4.29286C37.6461 1.48849 42.7234 0 47.9338 0C54.6815 0 61.1568 2.50266 66.1342 7.03891C70.368 10.8939 73.2311 15.9207 74.3723 21.4629C84.0727 24.4574 90.9813 33.8162 91 44.2377C91 50.2106 88.7704 55.9389 84.7089 60.3848C80.6227 64.8753 75.111 67.5811 69.1942 68.006L69.0868 68.0099H62.6375C62.5142 68.0216 62.3935 68.0279 62.271 68.0279ZM49.665 34.0972L61.7611 46.1401C62.3495 46.726 63.3006 46.7229 63.8853 46.1333C64.4701 45.5437 64.467 44.5908 63.8786 44.0049L50.9407 31.1238C50.934 31.1172 50.9228 31.1059 50.9082 31.0909C50.8778 31.0599 50.8326 31.0134 50.7826 30.9621C50.6818 30.8585 50.5618 30.7353 50.5063 30.6799C49.72 29.8952 49.0853 29.4734 48.1629 29.4734C47.2261 29.4734 46.572 29.9107 45.7801 30.7115C45.6722 30.8207 45.3658 31.1434 45.3644 31.1449L32.4472 44.0049C31.8588 44.5908 31.8557 45.5437 32.4405 46.1333C33.0252 46.7229 33.9762 46.726 34.5647 46.1401L46.6608 34.0972V73.495C46.6608 74.3262 47.3333 75 48.1629 75C48.9925 75 49.665 74.3262 49.665 73.495V34.0972Z" fill="white"/>
</svg>
