<svg version="1.2" xmlns="http://www.w3.org/2000/svg" viewBox="0 0 91 75" width="91" height="75">
	<style>
		.s0 { fill: #ffffff } 
	</style>
	<path id="icon-upload" fill-rule="evenodd" class="s0" d="m62.27 68.03h-7.45c-0.83 0-1.5-0.68-1.5-1.51 0-0.83 0.67-1.5 1.5-1.5h7.45q0.04 0 0.12-0.01l0.17-0.01h6.47c5.13-0.38 9.9-2.73 13.46-6.65 3.56-3.89 5.51-8.89 5.51-14.11-0.02-9.39-6.46-17.81-15.31-20.13-0.57-0.15-1-0.62-1.1-1.2-0.89-5.25-3.5-10.02-7.48-13.64-4.42-4.04-10.18-6.26-16.18-6.26-4.63 0-9.14 1.32-13.01 3.82-3.22 2.07-5.89 4.86-7.78 8.14-0.32 0.56-0.95 0.85-1.58 0.73q-1.2-0.22-2.4-0.22c-6.86 0-12.45 5.56-12.45 12.38q0 1.26 0.26 2.6c0.12 0.57-0.12 1.16-0.59 1.5-4.61 3.34-7.38 8.71-7.38 14.37 0 4.62 1.73 9.11 4.89 12.67 3.24 3.64 7.49 5.77 11.91 6.02h21.87c0.83 0 1.5 0.67 1.5 1.5 0 0.83-0.67 1.51-1.5 1.51h-21.73-0.23c-5.31-0.3-10.3-2.8-14.07-7.03-3.64-4.11-5.64-9.31-5.64-14.67 0-6.32 2.93-12.31 7.87-16.24q-0.16-1.12-0.16-2.23c0-8.49 6.93-15.39 15.45-15.39q0.95 0 1.91 0.11c2.09-3.31 4.9-6.15 8.23-8.29 4.35-2.8 9.42-4.29 14.63-4.29 6.75 0 13.23 2.5 18.2 7.04 4.24 3.85 7.1 8.88 8.24 14.42 9.7 3 16.61 12.36 16.63 22.78 0 5.97-2.23 11.7-6.29 16.14-4.09 4.5-9.6 7.2-15.52 7.63h-0.1-6.45q-0.19 0.02-0.37 0.02zm-12.61 5.46c0 0.84-0.67 1.51-1.5 1.51-0.83 0-1.5-0.67-1.5-1.51v-39.39l-12.1 12.04c-0.58 0.59-1.53 0.58-2.12-0.01-0.58-0.59-0.58-1.54 0.01-2.13l12.91-12.86c0.01 0 0.31-0.32 0.42-0.43 0.79-0.8 1.45-1.24 2.38-1.24 0.93 0 1.56 0.43 2.35 1.21 0.05 0.06 0.17 0.18 0.27 0.28q0.08 0.08 0.13 0.13 0.02 0.02 0.03 0.03l12.94 12.88c0.59 0.59 0.59 1.54 0.01 2.13-0.59 0.59-1.54 0.6-2.13 0.01l-12.1-12.04z"/>
</svg>